<?xml version="1.0" standalone="no"?>
<!DOCTYPE svg PUBLIC "-//W3C//DTD SVG 20010904//EN"
 "http://www.w3.org/TR/2001/REC-SVG-20010904/DTD/svg10.dtd">
<svg version="1.0" xmlns="http://www.w3.org/2000/svg"
 width="32.000000pt" height="32.000000pt" viewBox="0 0 32.000000 32.000000"
 preserveAspectRatio="xMidYMid meet">

<g transform="translate(0.000000,32.000000) scale(0.100000,-0.100000)"
fill="#000000" stroke="none">
<path d="M174 269 c-3 -6 3 -13 15 -16 28 -7 27 -11 -11 -50 -38 -39 -30 -57
10 -22 l27 24 -29 -32 c-15 -17 -25 -36 -21 -42 3 -6 -6 -16 -22 -23 l-28 -11
30 -6 c17 -4 31 -13 33 -24 3 -14 -4 -17 -48 -17 -43 0 -53 3 -57 20 -7 25
-23 26 -23 2 0 -35 21 -42 121 -42 67 0 100 4 107 13 16 18 27 97 14 97 -5 0
-13 -20 -16 -45 -7 -43 -9 -45 -42 -45 -33 0 -46 13 -21 24 8 3 6 9 -7 20 -11
9 -18 17 -15 18 2 2 17 14 34 28 26 22 28 22 11 3 -34 -40 0 -24 38 17 39 43
39 57 -1 91 -22 20 -90 32 -99 18z m56 -92 c0 -2 -12 -14 -27 -28 l-28 -24 24
28 c23 25 31 32 31 24z"/>
<path d="M72 226 c-32 -44 -45 -116 -22 -116 6 0 10 15 10 33 0 43 46 106 78
107 12 0 22 5 22 10 0 6 -13 10 -28 10 -22 0 -36 -10 -60 -44z"/>
</g>
</svg>
